<svg id="Layer_1" data-name="Layer 1" xmlns="http://www.w3.org/2000/svg" viewBox="0 0 354.92 410.4"><defs><style>.cls-1{fill:#9e9b8a;stroke-width:7.54px;}.cls-1,.cls-3{stroke:#121c1f;}.cls-1,.cls-3,.cls-5,.cls-6{stroke-miterlimit:10;}.cls-2{fill:#121c1f;}.cls-3{fill:#dfff00;stroke-width:16.28px;}.cls-4{fill:#fff;}.cls-5,.cls-6{fill:none;}.cls-5{stroke:#fff;stroke-width:3.21px;}.cls-6{stroke:#000;stroke-width:4.82px;}</style></defs><path class="cls-1" d="M88.08,324.39,70.45,386.61c8.57,2.12,13.27,3.58,20.84,3.58l28.17-60.31"/><path class="cls-1" d="M256.1,324.39l17.63,62.22c-6.7,1.89-10.62,3.58-20.84,3.58l-26.53-60"/><path class="cls-1" d="M272,313.79C272,324.4,227.28,333,172.09,333s-99.92-8.61-99.92-19.22c0-3.45-4.69-24.25,3.56-27.05,17.18-5.82,59.09,7.82,96.36,7.82,36.26,0,78.78-14,96.29-8.45C277.52,289,272,310.15,272,313.79Z"/><ellipse class="cls-1" cx="172.09" cy="291.09" rx="99.92" ry="19.22"/><path class="cls-2" d="M185.11,294.37a33.92,33.92,0,0,1-14.52,2.74c-5.9,0-10.51-.77-14.53-2.74V230.71h29.05Z"/><ellipse class="cls-3" cx="172.09" cy="128.12" rx="75.92" ry="102.59"/><path d="M213.28,131.76a48.78,48.78,0,0,0,0-8.88,61,61,0,0,0-6.92-1.24,31.14,31.14,0,0,0-1.47-6,30.52,30.52,0,0,0-2.47-5.64,67.46,67.46,0,0,0,4.57-5.75,44,44,0,0,0-5.32-6.79,62.57,62.57,0,0,0-6,3.83,32.09,32.09,0,0,0-4.73-3.6A29,29,0,0,0,185.67,95a70.25,70.25,0,0,0,.07-7.54A35.34,35.34,0,0,0,177.61,86a73,73,0,0,0-2.31,7.08,31,31,0,0,0-5.77.53,28.19,28.19,0,0,0-5.59,1.64,63.49,63.49,0,0,0-4.44-5.83,37.36,37.36,0,0,0-7.13,4.47,72.28,72.28,0,0,0,2.44,7,39.18,39.18,0,0,0-4.11,4.42,38.64,38.64,0,0,0-3.3,5.13,55.38,55.38,0,0,0-6.85-1.38,40.42,40.42,0,0,0-2.82,8.37,58.79,58.79,0,0,0,6.07,3.69,44.5,44.5,0,0,0-.55,6.22,44.5,44.5,0,0,0,.55,6.22,58.79,58.79,0,0,0-6.07,3.69,40.42,40.42,0,0,0,2.82,8.37,55.38,55.38,0,0,0,6.85-1.38,37.39,37.39,0,0,0,3.3,5.13,38.24,38.24,0,0,0,4.11,4.41,70.77,70.77,0,0,0-2.44,7,37.36,37.36,0,0,0,7.13,4.47,63.49,63.49,0,0,0,4.44-5.83,26.91,26.91,0,0,0,5.59,1.64,31.94,31.94,0,0,0,5.77.54,73.91,73.91,0,0,0,2.31,7.08,35.9,35.9,0,0,0,8.13-1.53,70.25,70.25,0,0,0-.07-7.54,29.61,29.61,0,0,0,5.26-2.61,33.54,33.54,0,0,0,4.73-3.6,64.5,64.5,0,0,0,6,3.82,43.07,43.07,0,0,0,5.32-6.79,67.29,67.29,0,0,0-4.57-5.74A35.75,35.75,0,0,0,206.36,133,58.85,58.85,0,0,0,213.28,131.76Z"/><path class="cls-2" d="M175,148.09a17.18,17.18,0,0,1-3.45-.35A19.15,19.15,0,0,1,160,140.56a21.8,21.8,0,0,1,0-26.48,19.18,19.18,0,0,1,11.58-7.18,16.5,16.5,0,0,1,3.41-.34,18.75,18.75,0,0,1,9.84,2.84,20.42,20.42,0,0,1,8.51,10.91,21.87,21.87,0,0,1,0,14.05,20.39,20.39,0,0,1-8.52,10.89A18.75,18.75,0,0,1,175,148.09Z"/><path class="cls-4" d="M175,109.85a15.59,15.59,0,0,1,8.11,2.34,17.09,17.09,0,0,1,7.12,9.16,18.63,18.63,0,0,1,0,11.94,17.12,17.12,0,0,1-7.12,9.16A15.6,15.6,0,0,1,175,144.8a13.75,13.75,0,0,1-2.79-.28,16.06,16.06,0,0,1-9.6-6,18.53,18.53,0,0,1,0-22.46,16,16,0,0,1,9.6-6,13.75,13.75,0,0,1,2.79-.28m0-6.58h0a21,21,0,0,0-4.12.41,22.46,22.46,0,0,0-13.48,8.4,25.1,25.1,0,0,0,0,30.5A22.49,22.49,0,0,0,171,151a20.18,20.18,0,0,0,4,.39A22.08,22.08,0,0,0,186.59,148a23.75,23.75,0,0,0,9.9-12.67,25.28,25.28,0,0,0,0-16.17,23.68,23.68,0,0,0-9.92-12.62A22,22,0,0,0,175,103.27Z"/><path class="cls-5" d="M164.23,129a14.12,14.12,0,0,1,2.88-8.53,12.2,12.2,0,0,1,7.28-4.53"/><path class="cls-6" d="M208.12,127.32h20.57s1.16,67.52-64.46,108.21"/></svg>
