<svg id="Layer_1" data-name="Layer 1" xmlns="http://www.w3.org/2000/svg" viewBox="0 0 354.92 410.4"><defs><style>.cls-1{fill:#fff;}</style></defs><path d="M126.51,261.51c-1.15-.86-5.63,0-7.17,0-3.5,0-7-.78-10.3-.53a52.2,52.2,0,0,0-14.52,2.77c-13.52,4.94-23.73,13.6-32.66,24.67A77.92,77.92,0,0,0,47.5,315.12c-1.35,4.34-3.06,8.26-3.92,12.79-1.22,6.38-1.9,12.55-3.07,18.89a79.23,79.23,0,0,0-1.18,9.42c-.1,1.58-1.35,4.72-.71,5.79.89,1.49,5.57,1.2,6.9,1.25,4.39.21,8.59,1.05,13,1.2s4.8-.32,4.52-4.61a44.13,44.13,0,0,1,.79-9.06c.67-5,.81-4.35,5.07-5.47s8.16-3.34,12.29-4.52c2.59-.75,5.05-1.75,7.59-2.62,1.08-.37,2.14-.68,3.24-1,.92-.28,5.07-2.52,5.78-2.43,2.54.3,1.27,4.57,1,6.8-.44,4.25-.88,8.46-1.47,12.57-.42,3-3,12.12.06,13.86,1.55.86,6.14-.44,8.17-.12,2.58.42,4.69.44,7.22.69,3.69.38,5.36,2.3,5.53-3.09.29-9.17,1.22-18.3,2.07-27.63,1-10.5.88-21.41,2.45-31.83a184.65,184.65,0,0,0,1.81-20.65c.18-4.5,1.63-8.59,1.84-13C126.69,269.76,128.81,263.23,126.51,261.51Zm-23.12,28.63c-.19,2.17-.21,4.42-.57,6.56-.46,2.73-1.3,5.09-1,7.88.18,2,1.42,4.22-.94,5.62-1,.62-4,.78-5.32,1.26s-2.79.76-4.16,1.14c-4.76,1.3-9.39,3.44-14.13,4.89-1.18.36-2.41.49-3.59.87-2.49.83-3,2.73-3-.26-.06-2.71,2.63-6.25,3.89-8.65,4.87-9.26,11.52-16.32,21.31-20.69,1.69-.76,3.72-2.23,5.66-2C104.3,287.11,103.65,287.18,103.39,290.14Z"/><path d="M199.85,343.81a5.06,5.06,0,0,1-.25,1.35c-.13.49-.38.51-.47.52L196,346l-2.39.21-2.8.25h-.05c-3.23.28-3.92-.37-5.13-6.29-.08-.4-.53-1.88-.66-1.54a27.89,27.89,0,0,1-4.59,6.26c-1.63,1.7-3.77,2.67-6.66,3.74a25.32,25.32,0,0,1-6.68,1.54,28,28,0,0,1-6.12.17c-3.93-.49-6.78-1.37-8.72-2.69-2.83-1.92-6-4.26-8.11-7.15-6.05-8.33-8-17.41-6-28.57,1.61-9,11-19,23.61-20.51a23.5,23.5,0,0,1,14.12,3,15.93,15.93,0,0,1,5.27,6.14c.14.39-.08-1.31-.12-1.76s-.13-2.26-.22-3.81c-.07-1.37-.14-2.55-.16-2.84-.38-4.93-.71-10-1-14.83-.13-1.91-4.33-49.78-4.46-51.69s-.19-2.53-.43-4.56c-.1-.93-.21-1.86-.34-2.87,0-.19-.09-.44-.15-.72a6.27,6.27,0,0,1-.21-1.18c.28-.62.8-.88,2-1l1.78-.18c2.73-.29,5.54-.57,8.31-.83h0a12.2,12.2,0,0,1,1.35,0h.2a4.52,4.52,0,0,1,.94,3.05s0,0,0,0c.16,2.27.31,4.55.47,6.82.55,8.16,5.09,61.38,6.12,69.67.63,5,1.07,10.14,1.5,15.08.1,1.12.19,2.24.29,3.35a.85.85,0,0,1,0,.16v.11a61.2,61.2,0,0,0,1.21,14.08,34.24,34.24,0,0,1,.44,4.76l0,.72c.05,1,.3,3.2.56,5.58S199.84,343,199.85,343.81ZM183.33,316.3c-.64-2.87-2.84-5.71-4.56-7.49a14,14,0,0,0-3.49-2.63,17,17,0,0,0-9.55-2.09,19,19,0,0,0-9.07,3.49c-4.37,3-6,8.29-5.45,14.5.78,9.26,6.47,12.9,11.1,14.33a16,16,0,0,0,6.19.59c5.51-.49,10.59-3.42,12.93-7.47A18.57,18.57,0,0,0,183.33,316.3Z"/><path d="M223.47,258.42a111,111,0,0,1,17.07,2.78l1.1.19.66.49,5.27,10.89-.44.37-.65.19h-2.2l-5.47.12s-12.73,1.5-25.69,3.2c-11,1.45-22.85,1.71-22.85,1.71H145.68c-11,0-38.24-4.6-38.24-4.6l-2.41-.19-.88-.37-.66-11.13.44-.68,8.56-.86,9.74-1.37s14.76-1.47,20.26-1.44,25.49.1,31.28.16l11.82.13s12.62.27,19.06,0A105.39,105.39,0,0,1,223.47,258.42Z"/><path d="M290.55,371.92l-16.45-1.1-8.5-19.4L243.66,350l-.8,18.77-16.61-1.11,4.51-96.89,16.46,1.1Zm-44.81-66.68-1.42,30.37,14.93,1Z"/><path d="M231,165.22a77.65,77.65,0,0,1-10.08,7.52,33.62,33.62,0,0,1-5.11,2.64,16.56,16.56,0,0,1-4.5,1.13c-.39,0-.77,0-1.16,0-.71,0,.22.1-.46,0a10.34,10.34,0,0,1-1.24-.35c-.42-.16,0,0,.06,0-.22-.11-.44-.23-.65-.36a7.72,7.72,0,0,1-2.66-3.28,32.54,32.54,0,0,1-3.28-13,15.79,15.79,0,0,1,2.35-9.23,34.34,34.34,0,0,1,7.76-8.21,19,19,0,0,1,10.66-4.58,43.92,43.92,0,0,1,6.88.22l.93.09s1,.16.49.06c-.3-.07.57.17.73.22.42.13,0,0-.09-.06a4.16,4.16,0,0,1,.47.24c.2.12.41.24.6.37.5.32-.38-.35.08.05a9.24,9.24,0,0,1,2.55,3.67,27.14,27.14,0,0,1,1.37,5.31,23.41,23.41,0,0,1-1.14,11.72c-.72,1.94.81,4.21,2.69,4.73a3.94,3.94,0,0,0,4.73-2.69c3.06-8.2,2.27-19.77-3.38-26.71-3.33-4.09-8-4.67-13-4.91a26.89,26.89,0,0,0-15.36,3.43c-8.32,5-15.88,13.17-16.93,23.13-.58,5.43.77,11,2.6,16.1s4.52,9.5,9.8,11.17c5.12,1.62,10.69-.33,15.24-2.68a75.18,75.18,0,0,0,14.44-10.31,3.86,3.86,0,0,0,0-5.43,3.9,3.9,0,0,0-5.43,0Z"/><path d="M226,168.58c-11.88.07-28.16-4-13.34-21.8,7.54-9.07,24.86.12,21.43,11.57Z"/><path d="M195.72,129.31c-.17-.05-.38-.16-.56-.2l.55.23-.37-.17c-.31-.15-.62-.31-.92-.48s-.73-.45-1.08-.69l-.45-.32c-.48-.35-.07-.07.16.13-1.35-1.15-2.67-2.31-3.92-3.56a78.78,78.78,0,0,0-8.13-7.58,3.82,3.82,0,0,0-3-.38,3.83,3.83,0,0,0-2.68,4.73,4.44,4.44,0,0,0,1.76,2.29c.63.47-.72-.58-.1-.08l.5.42c.31.26.62.54.92.81.66.61,1.31,1.23,1.94,1.86,1.28,1.28,2.53,2.6,3.82,3.88,2.76,2.71,5.76,5.27,9.48,6.53a3.87,3.87,0,0,0,4.73-2.69,4,4,0,0,0-2.69-4.73Z"/><path d="M213.58,125.68a30.51,30.51,0,0,0-1.74-7.73c-.9-2.47-2-4.87-3.13-7.24a3.86,3.86,0,0,0-2.3-1.77,3.85,3.85,0,0,0-4.34,5.65c.44.92.87,1.85,1.29,2.78.13.29.26.58.38.87.3.69-.32-.78,0,0,.19.48.39,1,.57,1.44a28.76,28.76,0,0,1,1.62,6.1l-.14-1c0,.31.08.63.11,1a4.09,4.09,0,0,0,1.13,2.71,3.9,3.9,0,0,0,2.72,1.13c1.92-.09,4-1.7,3.84-3.84Z"/><path d="M188,143.27a22.86,22.86,0,0,1-4.75-.12c.94.12-.48-.09-.64-.12l-1-.19c-.82-.17-1.64-.37-2.46-.58-3.08-.79-6.11-1.76-9.25-2.32-2-.36-4.24.53-4.73,2.68-.43,1.88.57,4.35,2.69,4.73,6.73,1.21,13.16,4.16,20.13,3.61a3.91,3.91,0,0,0,3.84-3.84c-.08-2-1.69-4-3.84-3.85Z"/><path class="cls-1" d="M227.81,148.46c5,2.48,4.11,7-.63,7.91-4.47.89-5.25-5.36-5.25-5.36S222.77,146,227.81,148.46Z"/><path d="M286.1,129.17l0,4.6.05,6.49-.59,4.36-1.58,6.3-1.14,4.39-1.42,4.13-1.4,4.4-1.39,4.67-1.42,4.13-2.67,6.08-2,3.62-3.57,4.5L266.39,190,262,194.5l-5.64,6.23L253,203.87l-4.93,4.3-3.4,2.34-5.25,3.24L236,215.54,230.18,218l-4,1.56-4.27,1.29-4.28,1-16.34,3.25-4,.47-5.91.84-4.32.21-8.65.16-7-.19-4.31.21-8.61,1-6.74.6-4.57.5-4.06-.07-18.9.94-4.06-.07-11.66-.5-2.21-1-1.42-1.29-.69-2.94-.48-4.31.16-2.17.14-8.12-.19-3.78,0-6.22-.2-4,0-4.33-.21-4.32-1-14.29-.21-4.32L100.9,153.8l.06-4.06,0-6,.33-4.07,0-4.6-.22-4.32-.89-7-.49-4.58-.13-2.43-.49-4.57.37-14.36-.22-4.32-1-14.29-.21-4.32L96.54,60.66,96,50.14l.06-4.34.6-4.09.4-3,1-1.67,2.93-1,4.56-.77,4-.74,4.31-.49,23.76-.91L142,33l13,.17,2.17.16,4.86-.24L173.31,32l4-.47,4.32-.21,6.78.2,8.66.11,4.35.33,7.07.73,4.36.59,4.1.88,9.89,3L231,38.83l4.16,2,3.88,2,9.22,5.76,3.66,2.8,3.37,2.53,6.22,5.38,2.83,2.56,2.58,2.85L269,68.06l3.26,5.79,1.82,4,1.56,4.26,1.84,4.23L279,90.56l1.3,4.26,1.37,5.89,1,4.27,1,4.55.76,4.29.59,6.47.49,4.3Zm-60.38,26.27,1.68-4.14,1.4-4.67.87-4.1.79-6,.08-3.8,0-6.22-.43-8.64-.48-4.3-1.12-6.17-1.28-4-.62-1.6-2.37-3.94-4.32-5.47-1.42-1.28-2.85-2.83-3.11-2.82-3.36-2.27L203,80l-3.85-1.43-3.83-.62-4.35-.6-6.76.07-4.61,0-6.74.33-6,0-4,.47L157,79.3l-2.93,1-1.28,1.42L152.13,85,152,87.4l-.07,4.06.94,8.07.49,4.31.83,5.91.76,4.29.48,4.31.22,4.32,0,6,.65,12.95,0,4.61-.06,4.33-.25,6,.19,3.78,0,6.22.47,4,1.13,6.44,1.23,2.91,1.69,1.27,3.25.11,25-2.87,6.2-.58,4.28-1,4.52-1.58,4.24-1.83,3.95-2.09,3.39-2.61,4.64-4.56,2.54-3.37Z"/></svg>